# xmcd
# Copyright (C) 1995-1998 Ti Kan
#
# Track frame offsets:
#       150
#       16674
#       37736
#       54680
#       65489
#       81486
#       102083
#       106755
#       125823
#       135165
#       155627
#       166422
#       174247
#       192859
#       196387
#       211269
#       224128
#       249115
#       264925
#
# Disc length: 3883 seconds
#
# Revision: 0
# Processed by: cddbd v1.5.2PL0 Copyright (c) Steve Scherf et al.
# Submitted via: CD-Transfer v1.0
#
DISCID=000f2913
DTITLE=Djeæaci - Vojko V, Ivo Ivo, Zoni
DYEAR=15
DGENRE=
TTITLE0=Brutalna Besa
TTITLE1=Shopping
TTITLE2=Cmc
TTITLE3=Antonio
TTITLE4=Traèevi
TTITLE5=Funta
TTITLE6=Helikopter
TTITLE7=Bile Starke
TTITLE8=Jel?
TTITLE9=Struja
TTITLE10=Slijepa Marija
TTITLE11=Program
TTITLE12=Mlada Èasna
TTITLE13=Smeæe
TTITLE14=Maslaèak
TTITLE15=Yoko Ono
TTITLE16=Visoka Nota
TTITLE17=Gori Dolly
TTITLE18=Ko Bi Reka
EXTD=
EXTT0=
EXTT1=
EXTT2=
EXTT3=
EXTT4=
EXTT5=
EXTT6=
EXTT7=
EXTT8=
EXTT9=
EXTT10=
EXTT11=
EXTT12=
EXTT13=
EXTT14=
EXTT15=
EXTT16=
EXTT17=
EXTT18=
PLAYORDER=
